<?xml version="1.0" encoding="UTF-8"?>
<!DOCTYPE svg PUBLIC "-//W3C//DTD SVG 1.1//EN" "http://www.w3.org/Graphics/SVG/1.1/DTD/svg11.dtd">
<!-- Creator: CorelDRAW 2018 (64 Bit) -->
<svg xmlns="http://www.w3.org/2000/svg" xml:space="preserve" width="127mm" height="42.3332mm" version="1.1" style="shape-rendering:geometricPrecision; text-rendering:geometricPrecision; image-rendering:optimizeQuality; fill-rule:evenodd; clip-rule:evenodd"
viewBox="0 0 12699.98 4233.32"
 xmlns:xlink="http://www.w3.org/1999/xlink">
 <defs>
  <style type="text/css">
   <![CDATA[
    .fil0 {fill:black}
   ]]>
  </style>
 </defs>
 <g id="Camada_x0020_1">
  <metadata id="CorelCorpID_0Corel-Layer"/>
  <path class="fil0" d="M6327.28 1672.96c0,-13.19 10.68,-23.87 23.86,-23.87 13.17,0 23.86,10.68 23.86,23.87 0,13.16 -10.69,23.85 -23.86,23.85 -13.18,0 -23.86,-10.69 -23.86,-23.85zm-376.52 -1215.08c57.15,-0.91 104.25,2.89 142.83,48.61 47.22,56 79.43,123.54 129.4,159.76 43.73,31.87 82.56,45.17 125.59,45.17 42.96,0 81.8,-13.3 125.52,-45.17 50.04,-36.22 82.23,-103.76 129.4,-159.76 38.58,-45.72 85.7,-49.52 142.83,-48.61 34.1,0.63 10.89,-15.48 3.14,-21.74 -43.04,-34.54 -71.43,-52.05 -112.77,-44.53 -65.22,12.03 -98.07,68.38 -119.14,129.3 -25.4,74.08 -70.98,146.39 -166.66,158 196.75,-248.81 36.32,-467.25 -2.32,-467.25 -38.7,0 -199.12,218.44 -2.39,467.25 -95.68,-11.61 -141.27,-83.92 -166.6,-158 -21.13,-60.92 -53.97,-117.27 -119.18,-129.3 -41.28,-7.52 -69.74,9.99 -112.71,44.53 -7.82,6.26 -30.97,22.37 3.06,21.74zm342.54 325.29c-25.97,-0.49 -27.27,41.57 -27.52,58.24 -0.27,16.62 -0.19,58.68 25.75,59.24l112.31 2.32c25.92,0.56 27.31,-41.43 27.54,-58.1 0.25,-16.68 0.13,-58.74 -25.84,-59.3l-112.24 -2.4zm1490.54 2834.63c-33.47,-15.41 -79.92,-19.69 -114.69,-22.09 -33.86,-2.46 -9.17,14.57 15.62,42.91 18.12,20.68 88.99,111.57 133.85,64.02 17.99,-19.07 17.82,-60.57 -34.78,-84.84zm4026.48 -1409.16c-7.95,-53.95 -42.78,-110.65 -88.37,-116.91 -28.77,-4.23 -56.35,6.89 -69.35,25.95 -29.2,42.64 5.48,79.5 36.08,112.07 41.57,44.04 83.15,88.22 18.22,144.35 -42.98,37.22 -108.48,47.49 -163.91,34.54 -100.95,-23.35 -511.36,-291.16 -705.11,-369.88 -171.5,-69.72 -391.91,-118.34 -584.2,-123.11 -267.02,-6.55 -585.03,63.94 -841.77,239.19 -187.67,128.16 -314.95,288.92 -363.73,359.54 -69.3,100.31 -149.28,210.34 -247.98,277.53 -77.3,52.48 -188.18,104.95 -325.48,113.61 -219.96,13.93 -463.66,-83.86 -571.52,-295.33 -87.21,-170.8 -70.34,-367.21 64.33,-509.18 67.41,-71.05 208.94,-113.68 339.34,-63.39 38.89,14.92 73.8,36.45 97.51,68.25 17.74,23.63 13.24,43.62 9.05,61.63 -16.51,70.41 -136.57,58.8 -200.43,85.61 -55.42,23.28 -74.33,59.8 -92.07,117.12 -4.87,15.7 -2.75,23.37 8.9,14.56 53.66,-39.95 114.07,-20.96 172.6,-41.85 34.52,-12.52 62.36,-28.06 88.93,-53.32 29.91,-28.5 47.65,-70.28 51.72,-112.49 35.97,108.2 -15.01,196.56 -75.87,229.97 -56.84,31.38 -123.07,30.24 -181.29,58.96 -88.5,43.67 -139.93,124.36 -98.76,231.92 13.77,35.88 24.08,11.19 28.73,-2.53 30.5,-89.12 161.09,-52.82 244.4,-91.38 51.53,-23.78 90.6,-54.16 114.92,-104.25 10.6,43.62 32.98,83.85 69.25,112.21 19.64,15.33 48.04,27.36 72.43,32.99 102.42,23.77 229.9,-48.05 256.78,-150.62 5.53,-21.11 6.69,-46.29 3.57,-67.89 -10.67,-72.73 -67.91,-146.18 -136.53,-176.57 -31.76,-14.28 -25.51,-35.46 -50.4,60.85 -10.52,40.24 -1.93,104.47 12.51,144.08 15.26,41.86 11,98.13 -22.32,120.08 -26.27,17.31 -55.81,21.53 -85.32,12.38 -39.27,-12.38 -70.24,-45.58 -80.62,-72.1 -10.42,-27.31 -14.68,-58.12 -13.14,-89.56 7.83,-31.58 12.2,-65.21 11.27,-97.36 2.26,-51.28 -4.05,-122.76 -41.26,-190.36 -22.22,-45.03 -51.61,-77.53 -82.88,-100.74 56.79,9.22 107.71,17.3 143.6,17.16 87.67,-0.22 199.86,-21.18 217.57,-158.07 1.56,-11.47 4.21,-18.01 -0.3,-19.77 -4.15,-1.9 -7.53,4.36 -13.4,13.86 -53.02,85.69 -141.96,115.3 -249.89,97.29 -62.74,-10.48 -117.47,-39.25 -180.7,-48.33 47.4,-31.44 87.24,-70.07 119.46,-114.88 77.04,-107 73.05,-235.32 -30.32,-347.87 -18.73,-20.33 -17.52,-3.94 -21.73,3.72 -22.43,40.11 -39.56,84.63 -32.07,131.42 7.94,50.16 36.52,98.77 37.9,149.28 2.61,89.27 -65.79,153.07 -140.54,180.16 -115.88,42.14 -190.05,33.2 -289.07,123.11 10.59,-38.91 65.43,-77.38 105.64,-98.84 29.09,-15.48 62.8,-26.02 95.39,-36.44 41.38,-13.09 83.78,-26.38 118.13,-50.09 13.26,-9.21 25.5,-19.84 35.9,-32.92 40.03,-49.88 33.15,-113.83 8.52,-155.19 -27.85,-46.78 -59.18,-72.95 -107.91,-89.98 -24,-8.44 -71.99,-15.4 -99.49,10.98 -11.38,11.18 -17.07,25.46 -16.07,40.52 1.07,16.04 9.51,30.89 23.19,41.01 16.83,12.52 42.4,8.87 71.93,4.58 36.09,-5.15 79.48,-12.95 97.82,12.59 20.64,28.7 25.75,78.57 -3.01,114.45 -30.14,37.36 -81.79,54.88 -136.47,72.11 -34.14,10.91 -69.29,22.02 -101.37,39.05 -30.98,16.46 -62.62,41.79 -87.62,66.62 0.17,-89.35 -29.46,-152.66 -59.54,-193.68 -63.85,-87.02 -159.06,-120.99 -221.15,-123.8 -97.37,-4.37 -185.12,24.33 -247.65,78.5 -156.12,-266.26 -409.65,-449.46 -605.35,-489.34 168.43,-46.22 166.43,-45.03 217.34,-25.82 100.82,37.92 260.74,212.52 377.25,140.27 14.12,-8.86 50.07,-42.84 40.32,-37.99 -12.06,6.06 -32.58,15.48 -47.88,17.45 -107.53,13.78 -186.52,-146.04 -272.69,-187.33 -40.67,-19.49 -92.07,-22.73 -140,-15.55 48.31,-65.43 72.32,-150.69 64.88,-232.86 -15.5,-172.07 -182.18,-309.6 -352.98,-265.85 -223.84,57.2 -239.35,409.58 26.7,434.69 56.06,5.28 103.77,-27.16 127.71,-63.88 25,-33.97 27.37,-76.82 17.9,-104.11 -9.64,-30.82 -20.4,-25.97 -16.21,3.8 3.62,25.46 -3.24,55.85 -27.46,81.6 -21.88,24.76 -59.85,40.59 -98.48,34.96 -109.65,-16.25 -137.6,-151.1 -66.55,-238.83 64.4,-79.49 290.87,-104.25 330.65,136.26 18.06,108.83 -58.5,288.92 -306.97,302.29 -53.52,2.96 -127.45,-0.07 -182.8,2.11 -9.43,0.28 7.44,4.72 56.72,10 39.03,4.07 58.24,7.52 82.7,11.32 294.87,45.37 521.09,219.49 662.12,391.91 36.83,44.96 64.74,86.67 84.73,123.32 -10.93,12.52 -20.77,26.1 -29.31,40.66 -42.86,72.74 -27.84,113.26 -15.09,130.93 14.77,20.47 39.8,29.96 65.43,24.26 28.13,-6.05 49.46,-28.71 55.71,-59.16 6.57,-32.15 -4.37,-77.67 -30.01,-130.42 55.28,-52.06 134.9,-78.94 227.58,-74.78 57.86,2.53 139.66,37 191.88,108.12 27.83,37.92 44.33,82.73 49.87,132.68 -67.44,-195.22 -338.3,-157.87 -369.65,44.95 -3.93,25.33 -6.68,80.68 27.21,126.41 26.22,35.32 70.86,80.35 61.34,132.47 -2.73,14.99 -16.95,32.44 -5.48,27.79 5.43,-2.26 13.19,-5.84 25.51,-18.71 37.09,-38.56 53.35,-97.37 33.58,-145.27 -18.76,-45.38 -25.02,-73.31 -20.08,-106.73 13.33,-89.33 120.08,-94.05 166.11,-41.99 43.96,49.74 3.38,139.01 -18.21,194.09 -57.84,148.09 -51.19,321.15 29.46,464.09 114.22,202.67 378.32,323.11 634.94,303.83 36.41,-2.73 72.1,-8.43 107.51,-15.61 -23.22,14.85 -80.13,27.36 -102.5,35.25 -196.7,54.65 -408.41,43.04 -650.81,-32.86 -75.4,-20.54 -230.66,-100.04 -260.36,-170.53 -21.73,-51.41 -20.34,-108.9 -27.83,-163.2 -20.4,-148.79 -105.01,-195.01 -176.75,-230.26 -14.76,-7.24 -12.21,13.16 -3.76,37.43 26.33,77.53 13.01,102.15 15.89,242.85 1.22,58.52 19.33,198.38 188.68,216.82 33.65,3.65 61.29,2.17 126.79,37.84 -107.46,-7.88 -167.59,35.52 -208.08,63.03 -279.36,13.85 -373.87,161.94 -407.46,225.96 -35.2,67.05 -51.89,115.23 -90.01,157.51 -12.8,14.28 -7.1,20.61 12.58,11.6 99.51,-45.79 230.6,-90.25 288.81,-185.5 48.92,-79.64 85.07,-118.75 137.47,-152.94 -52.72,62.68 -94.63,132.67 -101.38,223.43 -10.69,144.14 72.05,256.21 43.78,327.26 -19.07,47.83 -78.98,91.45 -134.15,68.3 -45.21,-18.92 -97.07,-46.35 -110.42,-161.16 -6.1,-8.72 -28.23,13.79 -36.11,20.47 -204.32,173.41 -471.19,244.4 -739.99,246.3 -268.81,-1.9 -531.78,-77.53 -739.91,-246.3 -8.09,-6.47 -34.91,-31.03 -35.97,-20.75 -7.7,76.05 -64.73,142.52 -109.95,161.44 -55.17,23.15 -115.14,-20.47 -134.14,-68.3 -28.35,-71.05 54.4,-183.12 43.71,-327.26 -6.69,-90.76 -48.6,-160.75 -101.38,-223.43 52.4,34.19 88.6,73.3 137.52,152.94 58.21,95.25 189.25,139.71 288.81,185.5 19.64,9.01 25.33,2.68 12.53,-11.6 -38.05,-42.28 -54.79,-90.46 -89.94,-157.51 -33.66,-64.02 -128.11,-212.11 -407.53,-225.96 -40.4,-27.51 -100.62,-70.91 -208.08,-63.03 65.49,-35.67 93.12,-34.19 126.86,-37.84 169.34,-18.44 187.48,-158.3 188.68,-216.82 2.88,-140.7 -10.46,-165.32 15.87,-242.85 8.45,-24.27 10.94,-44.67 -3.82,-37.43 -71.66,35.25 -156.31,81.47 -176.73,230.26 -7.43,54.3 -6.07,111.79 -27.77,163.2 -29.77,70.49 -184.95,149.99 -260.34,170.53 -242.44,75.9 -454.19,87.51 -650.83,32.86 -22.44,-7.89 -79.3,-20.4 -102.5,-35.25 35.34,7.18 71.05,12.88 107.51,15.61 256.62,19.28 520.72,-101.16 634.87,-303.83 80.74,-142.94 87.37,-316 29.43,-464.09 -21.51,-55.08 -62.14,-144.35 -18.13,-194.09 46.03,-52.06 152.73,-47.34 166.05,41.99 5.01,33.42 -1.31,61.35 -20.03,106.73 -19.81,47.9 -3.53,106.71 33.54,145.27 12.39,12.87 20.08,16.45 25.58,18.71 11.45,4.65 -2.82,-12.8 -5.5,-27.79 -9.51,-52.12 35.15,-97.15 61.31,-132.47 33.88,-45.73 31.18,-101.08 27.24,-126.41 -31.4,-202.82 -302.17,-240.17 -369.68,-44.95 5.52,-49.95 22.08,-94.76 49.92,-132.68 52.22,-71.12 134.02,-105.59 191.88,-108.12 92.68,-4.16 172.28,22.72 227.53,74.78 -25.6,52.75 -36.53,98.27 -29.96,130.42 6.18,30.45 27.56,53.11 55.71,59.16 25.65,5.7 50.59,-3.79 65.36,-24.26 12.82,-17.67 27.82,-58.19 -15.09,-130.93 -8.54,-14.56 -18.38,-28.14 -29.26,-40.66 20.01,-36.65 47.9,-78.36 84.68,-123.32 141.03,-172.42 367.3,-346.54 662.12,-391.91 24.46,-3.8 43.73,-7.25 82.75,-11.32 49.22,-5.28 66.09,-9.72 56.74,-10 -55.37,-2.18 -129.35,0.85 -182.8,-2.11 -248.49,-13.37 -325.05,-193.46 -307.06,-302.29 39.85,-240.51 266.27,-215.75 330.67,-136.26 71.11,87.73 43.16,222.58 -66.55,238.83 -38.63,5.63 -76.59,-10.2 -98.41,-34.96 -24.27,-25.75 -31.16,-56.14 -27.53,-81.6 4.19,-29.77 -6.5,-34.62 -16.14,-3.8 -9.5,27.29 -7.15,70.14 17.83,104.11 23.94,36.72 71.66,69.16 127.78,63.88 265.98,-25.11 250.52,-377.49 26.68,-434.69 -170.78,-43.75 -337.53,93.78 -353.04,265.85 -7.44,82.17 16.64,167.43 64.85,232.86 -47.82,-7.18 -99.23,-3.94 -139.94,15.55 -86.19,41.29 -165.19,201.11 -272.64,187.33 -15.37,-1.97 -35.82,-11.39 -47.91,-17.45 -9.81,-4.85 26.14,29.13 40.28,37.99 116.58,72.25 276.43,-102.35 377.24,-140.27 50.92,-19.21 48.91,-20.4 217.34,25.82 -195.69,39.88 -449.15,223.08 -605.27,489.34 -62.6,-54.17 -150.36,-82.87 -247.65,-78.5 -62.11,2.81 -157.3,36.78 -221.23,123.8 -30.07,41.02 -59.65,104.33 -59.46,193.68 -25.02,-24.83 -56.66,-50.16 -87.69,-66.62 -32.01,-17.03 -67.16,-28.14 -101.32,-39.05 -54.73,-17.23 -106.31,-34.75 -136.52,-72.11 -28.69,-35.88 -23.59,-85.75 -2.99,-114.45 18.37,-25.54 61.78,-17.74 97.87,-12.59 29.53,4.29 55.1,7.94 71.86,-4.58 13.75,-10.12 22.14,-24.97 23.26,-41.01 1,-15.06 -4.76,-29.34 -16.13,-40.52 -27.51,-26.38 -75.5,-19.42 -99.5,-10.98 -48.66,17.03 -80.01,43.2 -107.83,89.98 -24.64,41.36 -31.59,105.31 8.49,155.19 10.4,13.08 22.59,23.71 35.85,32.92 34.4,23.71 76.8,37 118.2,50.09 32.52,10.42 66.3,20.96 95.37,36.44 40.21,21.46 95.07,59.93 105.66,98.84 -99.02,-89.91 -173.26,-80.97 -289.14,-123.11 -74.75,-27.09 -143.15,-90.89 -140.54,-180.16 1.44,-50.51 29.96,-99.12 37.97,-149.28 7.49,-46.79 -9.64,-91.31 -32.15,-131.42 -4.19,-7.66 -3,-24.05 -21.7,-3.72 -103.32,112.55 -107.39,240.87 -30.27,347.87 32.2,44.81 71.98,83.44 119.39,114.88 -63.23,9.08 -117.95,37.85 -180.68,48.33 -107.9,18.01 -196.82,-11.6 -249.84,-97.29 -5.95,-9.5 -9.29,-15.76 -13.48,-13.86 -4.43,1.76 -1.86,8.3 -0.24,19.77 17.71,136.89 129.9,157.85 217.59,158.07 35.82,0.14 86.81,-7.94 143.6,-17.16 -31.28,23.21 -60.66,55.71 -82.93,100.74 -37.23,67.6 -43.47,139.08 -41.22,190.36 -1.01,32.15 3.42,65.78 11.26,97.36 1.56,31.44 -2.77,62.25 -13.2,89.56 -10.32,26.52 -41.29,59.72 -80.61,72.1 -29.51,9.15 -59.05,4.93 -85.25,-12.38 -33.39,-21.95 -37.58,-78.22 -22.34,-120.08 14.46,-39.61 23.03,-103.84 12.52,-144.08 -24.95,-96.31 -18.63,-75.13 -50.47,-60.85 -68.61,30.39 -125.83,103.84 -136.52,176.57 -3.07,21.6 -1.94,46.78 3.61,67.89 26.91,102.57 154.37,174.39 256.79,150.62 24.41,-5.63 52.74,-17.66 72.45,-32.99 36.21,-28.36 58.58,-68.59 69.21,-112.21 24.35,50.09 63.38,80.47 114.96,104.25 83.31,38.56 213.83,2.26 244.33,91.38 4.72,13.72 15.02,38.41 28.72,2.53 41.16,-107.56 -10.18,-188.25 -98.75,-231.92 -58.22,-28.72 -124.41,-27.58 -181.22,-58.96 -60.94,-33.41 -111.89,-121.77 -75.95,-229.97 4.08,42.21 21.82,83.99 51.79,112.49 26.58,25.26 54.35,40.8 88.93,53.32 58.54,20.89 118.95,1.9 172.56,41.85 11.68,8.81 13.75,1.14 8.86,-14.56 -17.69,-57.32 -36.63,-93.84 -91.98,-117.12 -63.93,-26.81 -183.92,-15.2 -200.51,-85.61 -4.13,-18.01 -8.63,-38 9.06,-61.63 23.71,-31.8 58.67,-53.33 97.51,-68.25 130.4,-50.29 271.93,-7.66 339.33,63.39 134.66,141.97 151.62,338.38 64.43,509.18 -107.95,211.47 -351.59,309.26 -571.57,295.33 -137.27,-8.66 -248.22,-61.13 -325.45,-113.61 -98.7,-67.19 -178.75,-177.22 -247.98,-277.53 -48.78,-70.62 -176.06,-231.38 -363.81,-359.54 -256.73,-175.25 -574.69,-245.74 -841.68,-239.19 -192.44,4.77 -412.77,53.39 -584.24,123.11 -193.82,78.72 -604.16,346.53 -705.11,369.88 -55.47,12.95 -120.94,2.68 -163.91,-34.54 -64.92,-56.13 -23.32,-100.31 18.2,-144.35 30.57,-32.57 65.33,-69.43 36.14,-112.07 -13.14,-19.06 -40.59,-30.18 -69.36,-25.95 -45.64,6.26 -80.48,62.96 -88.36,116.91 -10.63,74.01 18.08,154 78.62,191.92 55.52,40.51 130.39,58.88 197.01,43.26 105.88,-24.62 220.38,-87.58 352.77,-160.53 105.58,-58.11 225.1,-124.17 358.07,-179.32 96.98,-40.18 362.78,-116.78 570.88,-120.29 320.94,-5.57 659.23,99.53 880.88,264.65 -453.12,-242.36 -744.25,-224.07 -883.6,-187 -125.32,33.42 -296.86,125.72 -243.46,329.38 16.15,61.55 95.44,123.18 177.25,118.6 56.4,-3.09 111.64,-26.31 133.08,-65.21 5.63,-10.27 19.7,-38.26 14.06,-43.76 -3.68,-3.51 -11.12,0.92 -29.55,-2.95 -23.9,-4.93 -67.69,-33.56 -137.8,-3.52 -59.85,25.82 -104.92,-20.4 -114.63,-40.02 -26.57,-53.47 -3,-143.44 99.93,-206.48 228.15,-139.85 544.18,-68.1 865.57,84.49 49.22,23.29 315.65,153.08 439.98,422.72 30.89,66.84 67.48,159.28 69.3,247.84 -62.8,33.56 -84.06,-24.06 -149.61,-40.1 -43.53,-10.54 -86.59,-9.29 -128.82,4.29 -39.03,12.46 -13.58,18.65 -5.94,25.97 57.73,55.71 123.58,114.59 209.19,112.62 29.27,-0.91 54.86,-13.08 72.94,-31.86 -8.52,69.15 -27.77,133.73 -58.12,169.68 -85.66,101.51 -145.53,72.03 -221.89,78.79 -107.12,9.56 -228.02,80.76 -249.03,257.19 10.62,-0.63 14.19,-22.52 77.04,-27.44 180.07,-14.28 289.51,-64.92 398.9,-211.74 83.43,-111.92 149.54,-324.31 60.97,-531.98 101.57,146.67 438.29,296.24 481.19,462.19 27.13,104.89 -40.47,191.56 -120.95,200.84 -58.67,6.82 -147.97,-24.83 -159.17,-109.81 -11.88,-90.61 37.47,-83.72 49.61,-159.06 10,-62.26 -27.23,-83.85 -53.05,-79.56 -64.54,10.63 -72.04,137.88 -59.16,206.75 19.64,105.1 73.67,175.17 187.76,191.77 109.82,16.04 204.12,-52.75 216.94,-148.01 12.52,-93.49 -3.5,-177.49 -193.45,-323.61 53.86,28.7 218.77,82.95 242.16,100.89 112.97,79.06 50.8,294.33 183.68,401.4 99.97,80.42 261.38,74.36 181.4,30.53 -106.83,-58.59 -79.18,-233.77 -157.62,-322.61 -75.24,-85.2 -185.17,-132.68 -190.95,-136.76 193.08,27.86 379.08,4.78 538.49,-44.75 210.81,-71.61 322.28,27.45 354.73,68.03 112.07,140.13 70.25,300.32 13.7,359 -90.23,93.56 -204.14,142.59 -285.07,81.39 -112.5,-85.19 -15.37,-224.69 111.28,-247.2 69.34,-12.39 131.51,-72.75 134.28,-140.98 0.37,-5.91 -0.19,-16.89 -19.83,3.16 -66.82,67.96 -118.15,-21.32 -231.04,8.58 -68.93,18.37 -118.81,77.67 -139.09,138.94 -24.28,73.3 6.87,179.32 78.05,243.4 67.24,60.43 146.98,75 241.03,52.06 -114.07,121.07 -149.16,349.36 -32.63,465.5 16.94,16.88 13.68,13.86 19.76,1.55 24.41,-48.89 53.77,-104.33 43.21,-160.12 -11.39,-59.79 -63.03,-97.42 -47.03,-183.53 15.95,-85.69 142.77,-172.08 189.43,-264.16 -20,47.9 -40.01,141.39 -31.44,206.68 9.69,73.72 58.59,127.83 130.01,142.46 134.9,27.79 225.46,-92.58 204,-206.83 210.15,172.85 475.77,269.65 745.75,271.83 270.36,-2.18 536.28,-99.19 746.48,-272.39 -21.88,114.38 68.81,235.18 203.97,207.39 71.42,-14.63 120.25,-68.74 129.96,-142.46 8.57,-65.29 -11.46,-158.78 -31.47,-206.68 46.71,92.08 173.56,178.47 189.44,264.16 16,86.11 -35.58,123.74 -46.98,183.53 -10.56,55.79 18.82,111.23 43.23,160.12 6.07,12.31 2.82,15.33 19.75,-1.55 116.46,-116.14 81.43,-344.43 -32.62,-465.5 94.04,22.94 173.79,8.37 241.03,-52.06 71.16,-64.08 102.25,-170.1 77.98,-243.4 -20.28,-61.27 -70.16,-120.57 -139.02,-138.94 -112.96,-29.9 -164.25,59.38 -231.04,-8.58 -19.64,-20.05 -20.27,-9.07 -19.88,-3.16 2.82,68.23 64.99,128.59 134.26,140.98 126.64,22.51 223.83,162.01 111.27,247.2 -80.93,61.2 -194.76,12.17 -285.01,-81.39 -56.59,-58.68 -98.42,-218.87 13.63,-359 32.54,-40.58 143.98,-139.64 354.75,-68.03 159.42,49.53 345.48,72.61 538.53,44.75 -5.8,4.08 -115.75,51.56 -190.99,136.76 -78.37,88.84 -50.72,264.02 -157.55,322.61 -79.98,43.83 81.42,49.89 181.38,-30.53 132.88,-107.07 70.66,-322.34 183.63,-401.4 23.39,-17.94 188.28,-72.19 242.23,-100.89 -190.02,146.12 -206.01,230.12 -193.46,323.61 12.76,95.26 107.06,164.05 216.93,148.01 114.11,-16.6 168.14,-86.67 187.78,-191.77 12.86,-68.87 5.31,-196.12 -59.18,-206.75 -25.82,-4.29 -63.08,17.3 -53.03,79.56 12.14,75.34 61.47,68.45 49.54,159.06 -11.16,84.98 -100.5,116.63 -159.1,109.81 -80.56,-9.28 -148.16,-95.95 -121.02,-200.84 42.97,-165.95 379.64,-315.52 481.25,-462.19 -88.61,207.67 -22.51,420.06 60.91,531.98 109.46,146.82 218.83,197.46 398.97,211.74 62.76,4.92 66.42,26.81 76.97,27.44 -20.94,-176.43 -141.91,-247.63 -249.03,-257.19 -76.31,-6.76 -136.16,22.72 -221.84,-78.79 -30.33,-35.95 -49.58,-100.53 -58.1,-169.68 18.08,18.78 43.67,30.95 72.92,31.86 85.56,1.97 151.4,-56.91 209.21,-112.62 7.57,-7.32 33.08,-13.51 -5.94,-25.97 -42.3,-13.58 -85.36,-14.83 -128.9,-4.29 -65.48,16.04 -86.8,73.66 -149.53,40.1 1.78,-88.56 38.31,-181 69.23,-247.84 124.4,-269.64 390.81,-399.43 439.97,-422.72 321.45,-152.59 637.49,-224.34 865.62,-84.49 102.85,63.04 126.49,153.01 99.96,206.48 -9.63,19.62 -54.79,65.84 -114.66,40.02 -70.21,-30.04 -113.9,-1.41 -137.88,3.52 -18.4,3.87 -25.82,-0.56 -29.47,2.95 -5.67,5.5 8.42,33.49 14.05,43.76 21.46,38.9 76.69,62.12 133.11,65.21 81.74,4.58 161.09,-57.05 177.21,-118.6 53.46,-203.66 -118.11,-295.96 -243.48,-329.38 -139.35,-37.07 -430.48,-55.36 -883.58,187 221.69,-165.12 559.96,-270.22 880.9,-264.65 208.09,3.51 473.95,80.11 570.88,120.29 132.97,55.15 252.49,121.21 358.02,179.32 132.46,72.95 246.98,135.91 352.86,160.53 66.55,15.62 141.47,-2.75 196.97,-43.26 60.58,-37.92 89.28,-117.91 78.66,-191.92zm-3631.16 -546.32l0 0c-15.88,2.18 -39.84,5.69 -45.09,2.18 -5.21,-3.87 -8.76,-9.15 -8.69,-14.43 0.44,-26.93 47.91,-22.01 67.36,-15.33 17.13,5.98 31.46,13.36 44.15,22.66 -20.03,-0.49 -40.28,2.38 -57.73,4.92zm-743.11 258.81l0 0c-3.18,15.55 -12.96,26.52 -26.2,29.4 -8.08,1.7 -19.33,0.22 -26.09,-9.21 -12.25,-16.95 -5.89,-50.23 16.96,-88.91 4.62,-7.89 9.64,-15.35 14.95,-22.52 18.06,40.94 24.19,72.6 20.38,91.24zm-2151.81 -91.24l0 0c5.38,7.17 10.4,14.63 14.95,22.52 22.9,38.68 29.21,71.96 17.03,88.91 -6.83,9.43 -18,10.91 -26.16,9.21 -13.19,-2.88 -23.02,-13.85 -26.14,-29.4 -3.81,-18.64 2.31,-50.3 20.32,-91.24zm-777.07 -195.15l0 0c19.52,-6.68 66.99,-11.6 67.43,15.33 0.05,5.28 -3.56,10.56 -8.71,14.43 -5.31,3.51 -29.19,0 -45.14,-2.18 -17.38,-2.54 -37.65,-5.41 -57.72,-4.92 12.7,-9.3 27.08,-16.68 44.14,-22.66zm-3578.47 654.24l0 0c-12.21,-39.46 -6.68,-83.07 16.2,-127.96 12.13,-17.72 27.75,-30.54 42.52,-34.54 12.7,-3.38 22.2,0.42 29.89,11.6 11.71,16.89 -1,33.35 -32.71,66.98 -20.82,22.22 -46.97,50.09 -55.9,83.92zm10842.5 0l0 0c-8.93,-33.83 -35.03,-61.7 -55.85,-83.92 -31.66,-33.63 -44.4,-50.09 -32.72,-66.98 7.67,-11.18 17.17,-14.98 29.9,-11.6 14.7,4 30.32,16.82 42.56,34.54 22.79,44.89 28.28,88.5 16.11,127.96zm-4323.14 -614.84c5.26,-7.03 18.55,-22.51 29.07,-32.64 63.91,-61.21 131.53,-73.94 209.83,-155.54 76.67,-79.85 97.07,-191.92 114.89,-270.56 3.83,-16.61 10.58,-35.68 6.18,-38.07 -5.87,-3.16 -25.76,13.02 -41.91,22.24 -128.82,73.44 -277.48,130.42 -315.31,428.07 -2.01,15.61 -5.76,50.51 -2.75,46.5zm-2417.23 1921.57c-34.84,2.4 -81.29,6.68 -114.71,22.09 -52.58,24.27 -52.84,65.77 -34.83,84.84 44.91,47.55 115.77,-43.34 133.92,-64.02 24.76,-28.34 49.41,-45.37 15.62,-42.91zm-17.89 -2109.75c78.3,81.6 145.98,94.33 209.84,155.54 10.57,10.13 23.88,25.61 29.14,32.64 2.93,4.01 -0.81,-30.89 -2.75,-46.5 -37.85,-297.65 -186.56,-354.63 -315.35,-428.07 -16.11,-9.22 -36.08,-25.4 -41.87,-22.24 -4.4,2.39 2.35,21.46 6.11,38.07 17.89,78.64 38.28,190.71 114.88,270.56zm1335.64 1967.01c-522.35,0 -947.26,-424.97 -947.26,-947.24 0,-522.34 424.91,-947.25 947.26,-947.25 522.29,0 947.26,424.91 947.26,947.25 0,522.27 -424.97,947.24 -947.26,947.24zm0 -1856.08l0 0c-501.14,0 -908.85,407.67 -908.85,908.84 0,501.1 407.71,908.83 908.85,908.83 501.15,0 908.85,-407.73 908.85,-908.83 0,-501.17 -407.7,-908.84 -908.85,-908.84zm299.2 1687.34c-5.03,-12.17 0.75,-26.12 12.92,-31.15 12.16,-5.05 26.14,0.73 31.17,12.9 5.04,12.18 -0.74,26.12 -12.91,31.17 -12.18,5.03 -26.12,-0.74 -31.18,-12.92zm-637.37 -1538.75c-5.05,-12.18 0.73,-26.13 12.9,-31.17 12.17,-5.04 26.13,0.73 31.18,12.91 5.04,12.16 -0.74,26.12 -12.91,31.16 -12.16,5.05 -26.14,-0.74 -31.17,-12.9zm-437.78 1056.9c12.17,-5.04 26.13,0.74 31.16,12.91 5.05,12.17 -0.73,26.12 -12.9,31.17 -12.17,5.04 -26.12,-0.75 -31.17,-12.93 -5.04,-12.15 0.74,-26.11 12.91,-31.15zm1538.77 -637.38c12.17,-5.05 26.12,0.75 31.17,12.9 5.03,12.18 -0.75,26.14 -12.92,31.18 -12.17,5.04 -26.12,-0.73 -31.16,-12.91 -5.04,-12.18 0.74,-26.13 12.91,-31.17zm-272.23 1015.94c-8.01,-10.46 -6.04,-25.44 4.41,-33.45 10.46,-8.03 25.42,-6.06 33.44,4.4 8.01,10.45 6.05,25.43 -4.4,33.45 -10.45,8.01 -25.43,6.05 -33.45,-4.4zm-1013.91 -1321.38c-8.03,-10.44 -6.06,-25.42 4.4,-33.44 10.44,-8.02 25.41,-6.05 33.44,4.4 8.02,10.45 6.05,25.43 -4.39,33.45 -10.47,8.03 -25.44,6.05 -33.45,-4.41zm-149.32 1134.2c10.44,-8.03 25.43,-6.05 33.46,4.41 8.01,10.45 6.03,25.42 -4.41,33.45 -10.46,8.01 -25.44,6.04 -33.45,-4.4 -8.03,-10.46 -6.05,-25.44 4.4,-33.46zm1321.36 -1013.91c10.46,-8.03 25.43,-6.05 33.45,4.39 8.02,10.46 6.04,25.43 -4.4,33.45 -10.45,8.02 -25.42,6.06 -33.46,-4.41 -8.01,-10.44 -6.03,-25.42 4.41,-33.43zm0 1051.77c-10.44,-8.02 -12.42,-23 -4.41,-33.46 8.02,-10.45 23,-12.42 33.45,-4.4 10.45,8.02 12.43,23 4.4,33.46 -8.02,10.45 -22.98,12.41 -33.44,4.4zm-1321.37 -1013.94c-10.45,-8.01 -12.43,-22.98 -4.4,-33.43 8.01,-10.45 23,-12.43 33.45,-4.4 10.44,8.01 12.42,22.99 4.41,33.43 -8.02,10.47 -23.02,12.44 -33.46,4.4zm149.33 1134.21c8.01,-10.45 22.99,-12.43 33.45,-4.41 10.45,8.02 12.42,23 4.4,33.46 -8.03,10.44 -23,12.42 -33.44,4.4 -10.46,-8.02 -12.43,-23 -4.41,-33.45zm1013.93 -1321.36c8.02,-10.46 22.98,-12.43 33.43,-4.4 10.45,8.01 12.42,22.98 4.41,33.43 -8.02,10.46 -22.99,12.44 -33.45,4.41 -10.45,-8.02 -12.42,-23 -4.39,-33.44zm272.2 1015.93c-12.17,-5.05 -17.95,-19 -12.91,-31.17 5.04,-12.17 19,-17.95 31.17,-12.92 12.17,5.05 17.95,19.01 12.92,31.17 -5.04,12.17 -19.01,17.95 -31.18,12.92zm-1538.77 -637.38c-12.17,-5.04 -17.95,-18.99 -12.91,-31.17 5.04,-12.17 19.01,-17.95 31.18,-12.91 12.17,5.04 17.96,18.99 12.9,31.17 -5.03,12.18 -19,17.94 -31.17,12.91zm437.8 1056.9c5.04,-12.17 19,-17.95 31.17,-12.91 12.17,5.03 17.95,18.99 12.91,31.17 -5.05,12.17 -19.01,17.95 -31.17,12.91 -12.17,-5.04 -17.96,-19 -12.91,-31.17zm637.37 -1538.77c5.05,-12.17 18.99,-17.95 31.18,-12.91 12.17,5.04 17.94,19.01 12.9,31.18 -5.03,12.17 -18.99,17.95 -31.16,12.9 -12.18,-5.03 -17.95,-19 -12.92,-31.17zm525.89 910.87c-13.06,-1.71 -22.27,-13.7 -20.55,-26.77 1.72,-13.06 13.71,-22.26 26.77,-20.53 13.07,1.72 22.25,13.7 20.54,26.76 -1.72,13.06 -13.7,22.26 -26.76,20.54zm-1651.3 -217.4c-13.07,-1.72 -22.26,-13.7 -20.54,-26.77 1.71,-13.06 13.7,-22.25 26.77,-20.52 13.05,1.7 22.26,13.69 20.54,26.75 -1.72,13.07 -13.71,22.26 -26.77,20.54zm696.41 907.58c1.72,-13.05 13.7,-22.26 26.77,-20.55 13.06,1.73 22.26,13.72 20.53,26.77 -1.71,13.07 -13.7,22.26 -26.76,20.55 -13.05,-1.72 -22.25,-13.71 -20.54,-26.77zm217.4 -1651.29c1.72,-13.07 13.7,-22.26 26.77,-20.54 13.05,1.71 22.25,13.7 20.53,26.76 -1.71,13.05 -13.7,22.26 -26.77,20.55 -13.05,-1.74 -22.24,-13.71 -20.53,-26.77zm743.72 743.71c-13.07,1.73 -25.06,-7.47 -26.77,-20.54 -1.72,-13.05 7.47,-25.05 20.54,-26.76 13.05,-1.72 25.04,7.47 26.76,20.54 1.71,13.06 -7.48,25.04 -20.53,26.76zm-1651.3 217.4c-13.07,1.72 -25.06,-7.48 -26.77,-20.53 -1.72,-13.08 7.47,-25.05 20.53,-26.77 13.07,-1.72 25.06,7.47 26.77,20.53 1.72,13.06 -7.48,25.06 -20.53,26.77zm907.58 696.41c-1.72,-13.06 7.48,-25.05 20.53,-26.77 13.06,-1.71 25.06,7.48 26.78,20.54 1.71,13.05 -7.49,25.05 -20.55,26.77 -13.07,1.71 -25.04,-7.49 -26.76,-20.54zm-217.4 -1651.3c-1.71,-13.06 7.48,-25.05 20.53,-26.76 13.07,-1.72 25.06,7.47 26.77,20.53 1.72,13.07 -7.48,25.04 -20.53,26.77 -13.07,1.71 -25.05,-7.49 -26.77,-20.54zm324.84 1633.09c-3.42,-12.71 4.15,-25.8 16.86,-29.21 12.74,-3.39 25.82,4.14 29.22,16.88 3.42,12.73 -4.14,25.81 -16.85,29.21 -12.73,3.41 -25.81,-4.15 -29.23,-16.88zm-431.07 -1608.76c-3.42,-12.76 4.14,-25.84 16.85,-29.25 12.74,-3.4 25.82,4.15 29.24,16.88 3.41,12.72 -4.15,25.81 -16.86,29.22 -12.74,3.41 -25.81,-4.14 -29.23,-16.85zm-571.99 990.71c12.73,-3.42 25.82,4.13 29.22,16.86 3.41,12.73 -4.13,25.81 -16.87,29.21 -12.72,3.43 -25.8,-4.14 -29.21,-16.86 -3.41,-12.72 4.15,-25.81 16.86,-29.21zm1608.79 -431.08c12.74,-3.43 25.81,4.13 29.22,16.86 3.41,12.72 -4.14,25.81 -16.87,29.22 -12.72,3.42 -25.81,-4.14 -29.21,-16.86 -3.41,-12.74 4.15,-25.82 16.86,-29.22zm-402.5 971.7c-6.59,-11.41 -2.67,-26 8.73,-32.59 11.42,-6.58 26.01,-2.67 32.58,8.74 6.6,11.41 2.69,26 -8.71,32.58 -11.41,6.59 -26,2.68 -32.6,-8.73zm-832.76 -1442.39c-6.61,-11.43 -2.7,-26.02 8.72,-32.6 11.41,-6.58 26,-2.68 32.6,8.74 6.58,11.41 2.66,26 -8.72,32.58 -11.43,6.59 -26.02,2.68 -32.6,-8.72zm-296.07 1105c11.4,-6.6 25.99,-2.69 32.58,8.72 6.57,11.41 2.67,26 -8.75,32.59 -11.4,6.59 -25.99,2.68 -32.57,-8.72 -6.59,-11.42 -2.68,-26.01 8.74,-32.59zm1442.39 -832.77c11.4,-6.6 25.99,-2.69 32.58,8.72 6.6,11.41 2.7,26.01 -8.73,32.59 -11.4,6.59 -26,2.68 -32.59,-8.73 -6.58,-11.41 -2.66,-26 8.74,-32.58zm-137.29 1042.76c-9.33,-9.31 -9.33,-24.42 -0.01,-33.74 9.33,-9.31 24.43,-9.31 33.73,0.01 9.32,9.32 9.32,24.43 0.02,33.73 -9.31,9.32 -24.42,9.31 -33.74,0zm-1177.71 -1177.71c-9.33,-9.32 -9.33,-24.42 -0.01,-33.74 9.31,-9.32 24.42,-9.32 33.74,0 9.31,9.32 9.31,24.43 0.01,33.74 -9.32,9.32 -24.43,9.31 -33.74,0zm0.01 1143.98c9.31,-9.32 24.41,-9.32 33.73,-0.01 9.31,9.32 9.31,24.43 -0.01,33.74 -9.31,9.32 -24.42,9.32 -33.73,0.01 -9.31,-9.31 -9.3,-24.43 0.01,-33.74zm1177.7 -1177.71c9.32,-9.33 24.43,-9.33 33.74,-0.01 9.31,9.31 9.32,24.42 0,33.73 -9.31,9.33 -24.42,9.33 -33.74,0.01 -9.32,-9.32 -9.3,-24.42 0,-33.73zm137.29 1042.76c-11.41,-6.59 -15.33,-21.18 -8.74,-32.59 6.59,-11.41 21.18,-15.32 32.58,-8.72 11.41,6.58 15.33,21.17 8.74,32.58 -6.59,11.41 -21.19,15.31 -32.58,8.73zm-1442.4 -832.77c-11.43,-6.58 -15.34,-21.17 -8.74,-32.59 6.58,-11.4 21.17,-15.32 32.58,-8.73 11.41,6.59 15.32,21.19 8.75,32.58 -6.6,11.42 -21.19,15.32 -32.59,8.74zm296.09 1105c6.58,-11.41 21.17,-15.33 32.59,-8.74 11.39,6.59 15.31,21.18 8.72,32.59 -6.59,11.41 -21.18,15.32 -32.58,8.74 -11.42,-6.59 -15.32,-21.19 -8.73,-32.59zm832.76 -1442.4c6.59,-11.42 21.18,-15.33 32.59,-8.74 11.41,6.58 15.33,21.17 8.73,32.58 -6.58,11.42 -21.18,15.33 -32.59,8.74 -11.4,-6.58 -15.31,-21.17 -8.73,-32.58zm402.49 971.71c-12.73,-3.41 -20.28,-16.49 -16.87,-29.22 3.41,-12.73 16.49,-20.28 29.22,-16.86 12.71,3.4 20.28,16.49 16.87,29.21 -3.41,12.72 -16.5,20.28 -29.22,16.87zm-1608.79 -431.08c-12.73,-3.41 -20.28,-16.49 -16.87,-29.22 3.41,-12.72 16.49,-20.28 29.22,-16.86 12.72,3.4 20.28,16.49 16.87,29.22 -3.41,12.72 -16.5,20.27 -29.22,16.86zm572 990.72c3.41,-12.74 16.49,-20.28 29.22,-16.87 12.71,3.41 20.28,16.49 16.86,29.21 -3.42,12.72 -16.49,20.28 -29.22,16.88 -12.72,-3.41 -20.27,-16.5 -16.86,-29.22zm431.07 -1608.8c3.41,-12.72 16.49,-20.29 29.22,-16.87 12.71,3.42 20.28,16.49 16.86,29.23 -3.41,12.72 -16.49,20.27 -29.21,16.86 -12.72,-3.41 -20.28,-16.5 -16.87,-29.22zm640.27 834.43c-13.17,0 -23.85,-10.68 -23.85,-23.85 0,-13.17 10.68,-23.86 23.85,-23.86 13.17,0 23.86,10.69 23.86,23.86 0,13.17 -10.69,23.85 -23.86,23.85zm-1665.54 0c-13.18,0 -23.86,-10.68 -23.86,-23.85 0,-13.17 10.68,-23.86 23.86,-23.86 13.16,0 23.85,10.69 23.85,23.86 0,13.17 -10.69,23.85 -23.85,23.85zm808.91 808.92c0,-13.18 10.68,-23.85 23.86,-23.85 13.17,0 23.86,10.67 23.86,23.85 0,13.17 -10.69,23.86 -23.86,23.86 -13.18,0 -23.86,-10.69 -23.86,-23.86z"/>
 </g>
</svg>
