<?xml version="1.0" encoding="UTF-8"?>
<!DOCTYPE svg PUBLIC "-//W3C//DTD SVG 1.1//EN" "http://www.w3.org/Graphics/SVG/1.1/DTD/svg11.dtd">
<!-- Creator: CorelDRAW 2018 (64 Bit) -->
<svg xmlns="http://www.w3.org/2000/svg" xml:space="preserve" width="127mm" height="42.3332mm" version="1.1" style="shape-rendering:geometricPrecision; text-rendering:geometricPrecision; image-rendering:optimizeQuality; fill-rule:evenodd; clip-rule:evenodd"
viewBox="0 0 12699.98 4233.32"
 xmlns:xlink="http://www.w3.org/1999/xlink">
 <defs>
  <style type="text/css">
   <![CDATA[
    .fil0 {fill:black;fill-rule:nonzero}
   ]]>
  </style>
 </defs>
 <g id="Camada_x0020_1">
  <metadata id="CorelCorpID_0Corel-Layer"/>
  <path class="fil0" d="M6349.99 312.98c28.01,0 50.62,-22.63 50.62,-50.63 0,-28.01 -22.61,-50.63 -50.62,-50.69 -28.01,0.06 -50.69,22.68 -50.69,50.69 0,28 22.68,50.63 50.69,50.63zm847.41 396.35c-44.67,10.34 -98.31,0.31 -139.84,22.93 -48.94,26.57 -74.38,72.74 -103.64,117.92 13.16,-52.57 12.78,-113.97 -14.97,-177.57 -46.19,-127.75 -177.19,-161.71 -251.88,-169.35 -46.8,-4.83 -30.82,9.14 -18.48,23.56 17.05,19.86 31.83,77.69 94.55,126.56 46.36,36.03 140.35,47.74 165.97,105.45 0.69,6.52 1.13,12.96 1.26,19.42 -40.17,-46.3 -103.32,-82.77 -147.87,-58.33 -25.06,13.72 -24.75,56.7 30.63,61.65 18.8,1.63 56.77,-17.42 116.35,22.3 -6.32,74.25 -45.61,134.52 -77.75,162.4 -96.11,83.15 -217.23,87.6 -332.38,12.23 -79.39,-52.01 -117.29,-124.25 -135.02,-188.59 41.04,84.14 105.01,131.76 131.2,148.48 62.52,40.04 127.31,55.02 170.35,37.41 32.58,-13.22 50.07,-49.43 41.23,-77.44 -7.39,-23.88 -35.65,-37.47 -59.15,-32.08 -23.62,5.27 -55.83,43.23 -24.12,81.32 -30.95,1.95 -71.43,-10.89 -111.03,-36.2 -21.49,-13.73 -41.66,-29.51 -59.2,-48 -20.06,-21.18 -37.66,-43.86 -52.38,-67.29 87.59,-82.21 114.53,-177.89 81.07,-289.91 23,-1.56 45.93,-15.1 64.72,-25.56 4.77,-2.7 18.36,-11.9 -1.43,-11.9 -31.08,0 -52.26,-8.15 -74.13,-32.27 -35.4,-38.85 -46.99,-77.63 -65.16,-91.54 -25.06,-19.11 -49.99,-14.54 -76.31,-14.54 -26.32,0 -51.31,-4.57 -76.38,14.54 -18.16,13.91 -29.76,52.69 -65.16,91.54 -21.87,24.12 -43.05,32.27 -74.12,32.27 -19.79,0 -6.2,9.2 -1.44,11.9 18.86,10.46 41.79,24 64.72,25.56 -33.46,112.02 -6.45,207.7 81.14,289.91 -14.78,23.43 -32.33,46.11 -52.38,67.29 -17.55,18.49 -37.78,34.27 -59.21,48 -39.59,25.31 -80.07,38.15 -111.09,36.2 31.77,-38.09 -0.43,-76.05 -24.06,-81.32 -23.56,-5.39 -51.75,8.2 -59.2,32.08 -8.78,28.01 8.64,64.22 41.22,77.44 43.04,17.61 107.89,2.63 170.36,-37.41 26.25,-16.72 90.22,-64.34 131.26,-148.48 -17.73,64.34 -55.69,136.58 -135.08,188.59 -115.16,75.37 -236.27,70.92 -332.39,-12.23 -32.14,-27.88 -71.36,-88.15 -77.75,-162.4 59.65,-39.72 97.62,-20.67 116.35,-22.3 55.39,-4.95 55.7,-47.93 30.7,-61.65 -44.61,-24.44 -107.7,12.03 -147.87,58.33 0.13,-6.46 0.5,-12.9 1.2,-19.42 25.62,-57.71 119.6,-69.42 165.97,-105.45 62.71,-48.87 77.56,-106.7 94.54,-126.56 12.4,-14.42 28.39,-28.39 -18.48,-23.56 -74.68,7.64 -205.7,41.6 -251.81,169.35 -27.75,63.6 -28.14,125 -14.98,177.57 -29.26,-45.18 -54.76,-91.35 -103.69,-117.92 -41.54,-22.62 -95.11,-12.59 -139.85,-22.93 -14.96,-3.45 -22.48,-0.13 -6.7,18.8 23.05,27.88 29.76,75.87 85.9,123.99 54.39,46.55 112.22,-6.39 176.56,36.41 4.71,11.83 10.03,22.67 15.73,33.14 -52.51,-31.02 -129.32,-23.82 -157.07,31.26 -21.87,43.54 10.9,115.29 78.13,106.89 10.95,-1.38 56.26,-13.72 1.31,-51.82 -43.42,-30 -20.93,-74.8 33.27,-66.72 47.37,7.02 96.49,52 126.82,71.49 103.62,66.66 226.56,67.29 341.72,-7.39 82.39,-53.45 130.63,-135.97 151.81,-225.57 21.11,89.6 69.36,172.12 151.81,225.57 115.1,74.68 238.03,74.05 341.66,7.39 30.33,-19.49 79.45,-64.47 126.88,-71.49 54.2,-8.08 76.62,36.72 33.21,66.72 -54.89,38.1 -9.66,50.44 1.31,51.82 67.29,8.4 100,-63.35 78.19,-106.89 -27.81,-55.08 -104.57,-62.28 -157.14,-31.26 5.71,-10.47 11.03,-21.31 15.8,-33.14 64.34,-42.8 122.17,10.14 176.5,-36.41 56.2,-48.12 62.9,-96.11 85.96,-123.99 15.78,-18.93 8.2,-22.25 -6.77,-18.8zm-854.55 -359.82l0 0c-66.04,99.61 -44.87,154.37 -19.8,236.39 16.29,53.38 4.26,118.73 -28.19,181.38 -78.45,-76.68 -98.5,-164.71 -60.54,-270.73 22.82,-13.34 31.84,-34.77 40.99,-62.84 13.09,-40.04 29.38,-84.2 70.23,-88.47 -0.75,1.26 -1.57,2.63 -2.69,4.27zm14.21 0l0 0c-1.06,-1.64 -1.93,-3.01 -2.69,-4.27 40.91,4.27 57.21,48.43 70.3,88.47 9.15,28.07 18.17,49.5 40.98,62.84 37.91,106.02 17.86,194.05 -60.53,270.73 -32.51,-62.65 -44.55,-128 -28.19,-181.38 25,-82.02 46.24,-136.78 -19.87,-236.39zm-7.07 3570.83c-28.01,0.07 -50.69,22.69 -50.69,50.69 0,28.01 22.68,50.63 50.69,50.63 28.01,0 50.62,-22.62 50.62,-50.63 0,-28 -22.61,-50.62 -50.62,-50.69zm489.27 -707.81c-103.26,-67.23 -226.55,-67.29 -341.66,7.39 -77.75,50.45 -124.8,126.82 -147.61,210.46 -22.87,-83.64 -69.86,-160.01 -147.61,-210.46 -115.11,-74.68 -238.41,-74.62 -341.67,-7.39 -129.5,84.27 -131.44,255.88 -95.48,340.16 47.18,110.58 177.19,161.71 251.87,169.35 46.8,4.82 30.83,-9.14 18.49,-23.56 -17.04,-19.86 -31.84,-77.69 -94.55,-126.56 -46.36,-36.03 -140.34,-47.74 -165.98,-105.45 -0.68,-6.52 -1.12,-12.97 -1.24,-19.42 40.15,46.3 103.31,82.77 147.86,58.32 25.06,-13.71 24.75,-56.69 -30.64,-61.65 -18.8,-1.62 -56.76,17.42 -116.35,-22.3 6.33,-74.24 45.61,-134.51 77.76,-162.4 96.1,-83.14 217.22,-87.59 332.38,-12.22 79.38,52.01 117.29,124.25 134.96,188.59 -40.97,-84.14 -104.95,-131.76 -131.13,-148.48 -62.54,-40.04 -127.32,-55.02 -170.37,-37.41 -32.58,13.22 -50.06,49.43 -41.23,77.44 7.4,23.87 35.66,37.47 59.15,32.08 23.62,-5.27 55.83,-43.23 24.12,-81.33 30.95,-1.94 71.43,10.9 111.03,36.21 21.49,13.73 41.67,29.51 59.21,48 80.83,85.28 121.68,195.48 96.68,277.5 -24.88,81.45 -45.87,136.02 18.54,234.33l0 5.38c-37.78,-6.76 -53.7,-48.86 -66.28,-87.52 -10.84,-33.34 -21.25,-57.45 -55.15,-69.55 -29.95,-10.65 -62.21,8.71 -87.21,22.62 -4.76,2.69 -18.36,11.9 1.44,11.9 31.08,0 52.26,8.15 74.12,32.27 35.4,38.85 46.99,77.63 65.16,91.54 23.69,18.05 47.37,14.97 72.12,14.6 24.68,0.37 48.43,3.45 72.12,-14.6 18.17,-13.91 29.75,-52.69 65.15,-91.54 21.87,-24.12 43.05,-32.27 74.13,-32.27 19.79,0 6.2,-9.21 1.44,-11.9 -25,-13.91 -57.27,-33.27 -87.21,-22.62 -33.91,12.1 -44.31,36.21 -55.15,69.55 -12.65,38.66 -28.5,80.76 -66.34,87.52l0 -5.38c64.47,-98.31 43.41,-152.88 18.54,-234.33 -25,-82.02 15.91,-192.22 96.74,-277.5 17.54,-18.49 37.72,-34.27 59.21,-48 39.6,-25.31 80.08,-38.15 111.02,-36.21 -31.7,38.1 0.5,76.06 24.13,81.33 23.49,5.39 51.75,-8.21 59.14,-32.08 8.84,-28.01 -8.65,-64.22 -41.22,-77.44 -43.05,-17.61 -107.84,-2.63 -170.37,37.41 -26.18,16.72 -90.16,64.34 -131.19,148.48 17.73,-64.34 55.63,-136.58 135.02,-188.59 115.16,-75.37 236.27,-70.92 332.38,12.22 32.14,27.89 71.43,88.16 77.76,162.4 -59.59,39.72 -97.55,20.68 -116.35,22.3 -55.39,4.96 -55.7,47.94 -30.64,61.65 44.55,24.45 107.7,-12.02 147.86,-58.32 -0.12,6.45 -0.56,12.9 -1.25,19.42 -25.63,57.71 -119.61,69.42 -165.97,105.45 -62.72,48.87 -77.51,106.7 -94.55,126.56 -12.35,14.42 -28.31,28.38 18.49,23.56 74.68,-7.64 204.69,-58.77 251.87,-169.35 35.96,-84.28 34.02,-255.89 -95.49,-340.16zm-2535.9 -797.1c29.26,-10.59 116.91,31.7 178.81,-90.66 -68.79,97.67 -151.93,41.73 -203.13,73.87 -34.95,21.99 -43.53,65.53 -25.93,97.99 27.25,49.94 77.5,7.52 43.29,-21.55 -27.5,-23.37 -15.54,-51.45 6.96,-59.65zm503.56 -977.48c28.38,-134.15 -66.54,-156.2 -82.65,-182.71 -12.4,-20.29 -4.13,-49.81 31.83,-50.81 44.87,-1.26 32.34,-65.85 -20.23,-43.86 -34.09,14.16 -54.7,53.57 -41.04,92.55 19.8,57.19 119.61,65.66 112.09,184.83zm278.56 899.35c-52.31,-17.55 -98.37,1.88 -137.53,-45.17 -13.4,-12.41 -21.24,-10.28 -16.97,14.09 8.58,49.25 17.73,90.85 59.08,127.64 48.68,43.29 107.08,18.1 145.86,40.34 20.67,11.84 73.74,57.65 17.92,190.54 104.7,-180.64 4.38,-303.07 -68.36,-327.44zm378.88 1070.47c-95.55,30.44 -107.96,115.9 -111.34,137.96 -5.58,36.34 -10.65,66.36 -34.77,79.07 -18.61,9.96 -36.84,3.01 -55.89,-30.32 -18.49,-32.33 -53.25,-27.7 -62.46,-0.94 -8.97,25.49 9.58,52.76 27.93,66.53 35.85,26.88 90.17,20.93 121.11,-18.1 45.44,-57.15 2.89,-174.12 115.42,-234.2zm-1129.55 -1524.72c-67.41,-34.14 -71.05,-103.38 -121.67,-153.07 -10.91,-10.71 -14.66,-21.18 10.27,-21.24 71.49,-0.06 128.75,5.52 182.89,56.27 29.39,27.56 46.43,96.93 72.74,105.32 -39.66,-71.87 -36.65,-139.85 10.15,-202 29.64,-39.22 88.34,-63.28 143.11,-58.64 47.93,4.01 86.46,29.44 108.2,71.67 31.58,60.84 -3.5,133.84 -68.23,152 -27.19,7.52 -58.77,9.46 -83.27,-6.76 -26.06,-17.36 -42.86,-49.88 -29.32,-74.38 12.15,-21.98 43.98,-17.04 60.58,-3.38 13.79,11.28 14.74,31.39 29.39,41.35 22.75,15.36 48.56,-2.76 59.9,-22.36 13.29,-22.63 14.72,-48.12 2.5,-71.68 -21.23,-41.11 -56.5,-52.32 -82.45,-54.38 -43.61,-3.77 -91.91,15.59 -114.78,45.85 -42.48,56.27 -41.98,116.3 1.56,183.46 51.63,79.7 151.38,97.37 209.4,108.21 63.79,11.96 119.92,13.59 159.07,15.41 31.78,1.44 64.04,3.64 97.7,7.77 -59.03,-43.54 -100.76,-99 -119.81,-125.38 -42.54,-58.7 -95.8,-182.01 -87.65,-302.37 4.14,-60.14 -88.34,-34.64 -121.99,-130.51 -19.86,-56.58 2.82,-112.53 1,-148.68 -1.19,-24.56 6.83,-22.75 16.67,-10.96 29.63,34.9 77.44,59.71 98.31,102.13 16.22,33.02 22.61,71.86 24.56,107.14 47.37,-168.68 219.22,-265.22 242.66,-277.63 72.42,-38.28 161.33,-64.85 271.8,-81.2 97.11,-14.41 183.46,-31.52 207.25,-111.66 19.05,-64.09 -15.09,-106.01 -47.11,-126.24 -30.83,-19.49 -88.78,-29.76 -129.82,11.02 -32.27,32.15 -28.13,64.6 -21.56,82.71 10.53,28.82 43.74,53.95 76.2,23.56 14.22,-13.34 9.71,-53.07 35.09,-58.71 19.73,-4.32 41.28,10.58 35.89,36.53 -4.38,21.05 -20.67,77 -91.47,76.63 -37.4,-0.19 -72.56,-30.7 -85.84,-67.05 -8.02,-21.99 -13.79,-74.93 29.63,-116.35 46.19,-44.04 120.62,-41.23 164.67,-13.34 55.26,34.96 82.07,91.16 64.6,157.45 -25.45,96.24 -131.65,122.18 -232.83,137.15 -106.77,15.85 -192.35,41.29 -261.53,77.88 -11.27,5.95 -59.4,32.9 -109.45,78.7 48.62,-27.32 104.07,-39.98 163.21,-37.03 35.97,1.82 101.07,16.41 145.62,-1.19 51.12,-19.92 59.7,-86.41 91.9,-66.1 43.3,27.32 -59.64,106.01 -120.6,105.19 10.14,6.27 20.11,12.98 30.2,21.05 76.93,5.02 78.94,-53.57 156.76,-51.81 71.93,1.63 99.24,56.08 140.34,45.11 20.31,-5.38 37.98,-8.58 22.75,14.41 -25.19,38.29 -94.29,68.99 -141.6,70.05 -55.7,1.26 -100.75,-26.06 -148.62,-50.69 37.66,38.98 67.79,92.48 75.44,161.47 23.55,133.71 -73.18,228.44 -134.08,272.23 -38.22,27.51 -31.27,7.46 -27.82,-11.14 4.95,-25.64 -11.03,-83.35 19.04,-156.9 22.31,-54.32 97.94,-111.15 91.42,-173.99 -2.63,-6.08 -5.51,-11.91 -8.59,-17.42 -11.77,60.03 -48.36,123.05 -99.24,124 -28.44,0.62 -49.62,-36.85 -4.01,-68.61 15.29,-10.78 57.82,-13.16 89.78,-77.32 -42.54,-61.15 -106.58,-93.85 -148.3,-102.07 -124.75,-24.24 -232.01,32.09 -294.36,154.89 -42.91,84.64 -39.78,166.28 -23.11,230.82 -6.46,-93.42 25.37,-166.6 39.72,-194.17 34.33,-65.85 83.02,-111.02 129.13,-117.29 34.84,-4.7 74.68,3.38 81.01,40.35 5.9,34.21 -25.75,56.14 -57.58,65.29 -49.81,14.29 -90.16,-30.2 -124.12,26.56 -13.03,21.81 -21.42,46.31 -27.38,70.99 -26.37,109.21 -17.41,213.28 73.94,309.96 77.69,82.2 202,114.47 288.65,205.26 79.19,83.07 119.04,202.43 107.07,324.93 -11.9,122.43 -79.75,223.05 -172.3,348.73 -14.22,19.43 -15.22,25.69 2.64,14.73 99.24,-60.71 256.7,-79.33 395.35,-30.89 56.83,19.8 118.35,50.31 168.23,101 71.67,72.87 103.32,167.04 100.31,236.52 -3.01,69.61 -24,135.15 -74.06,193.11 -23.62,27.38 -75.06,69.67 -88.59,115.66 -15.73,52.63 50.94,77.37 85.21,14.54 19.17,-35.16 34.08,17.85 33.84,29.01 -1.08,67.6 -83.4,97.42 -123.37,69.67 -50.82,-35.35 -47.06,-112.35 -8.96,-159.83 -11.09,4.07 -22.56,7.83 -35.03,10.9 -51.31,57.58 -7.15,122.36 -60.9,169.6 -55.51,48.75 -103.88,48.69 -134.83,67.61 -20.93,12.9 -23.18,4.95 -17.67,-9.34 16.48,-42.79 14.22,-97.24 42.41,-135.15 33.15,-44.85 82.52,-63.47 131.26,-86.02 -53.81,5.64 -114.59,-3.45 -173.61,-39.85 -119.99,-63.79 -135.08,-198.24 -132.14,-273.36 1.82,-46.93 13.41,-29.14 25.94,-14.92 17.17,19.74 72.37,42.49 111.97,111.41 29.07,51.06 27.31,145.73 80.88,179.25 6.4,1.63 12.78,2.88 19.04,3.94 -40.09,-46.24 -67.22,-113.96 -36.71,-154.56 16.98,-22.94 59.53,-16.6 56.65,38.97 -1.08,18.73 -25.32,53.69 5.63,118.41 74.38,4.14 139.53,-26.3 171.68,-54.19 95.98,-83.45 117.35,-202.69 58.96,-327.38 -16.6,-35.46 -36.97,-64.97 -61.09,-87.71 -32.84,-30.89 -68.8,-52.69 -103.76,-70.3 75.5,52.13 113.09,120.68 125.75,148.62 30.83,67.48 36.53,133.7 13.16,173.87 -17.8,30.45 -56.15,42.66 -82.71,29.95 -22.56,-10.71 -32.02,-40.54 -23.3,-63.1 8.52,-22.68 50.49,-49.18 83.96,-12.47 6.13,-30.26 -0.89,-72.23 -20.37,-114.96 -10.52,-23.19 -23.31,-45.43 -39.16,-65.29 -120.55,-152.01 -334.89,-166.92 -491.41,-70.11 -55.88,34.58 -97.42,84.01 -121.86,137.46 -27.19,59.64 -33.33,117.85 -27.5,161.84 8.14,61.84 66.35,129.07 145.54,69.92 -57.14,80.2 -162.39,34.09 -177.37,-65.72 -12.91,-86.15 26.38,-181.89 66.91,-247.49 34.15,-55.2 87.09,-141.41 133.46,-237.9 83.39,-173.75 40.91,-283.64 6.83,-339.03 -40.73,-66.29 -109.53,-107.26 -193.73,-115.41 -28.95,-2.82 -61.09,-1.95 -88.91,7.21 -31.83,10.46 -53.63,35.84 -64.28,66.97 -10.72,31.27 -0.51,63.35 -9.09,94.24 -4.58,16.41 -17.29,31.57 -34.09,36.77 -25.99,8.02 -47.55,-12.97 -53.25,-37.46 -13.72,-58.46 27.5,-117.67 71.87,-151.5 52.31,-39.79 115.91,-54.45 180.82,-48.19 94.48,9.15 171.92,55.52 218.04,130.51 34.71,56.52 48.81,125 41.73,196.99 -3.51,36.72 -15.92,90.85 -40.1,140.1 40.04,-54.45 67.04,-117.86 77.37,-186.46 18.55,-120.61 -17.35,-240.91 -95.42,-321.55 -48.74,-50.31 -108.08,-77.13 -163.9,-91.66 -156.27,-40.6 -343.42,29.06 -418.79,190.1 -10.77,23.05 -18.23,47.55 -23.12,72.55 -9.15,46.11 -6.39,88.53 6.7,116.6 24.06,-43.36 71.06,-27.38 84.65,-7.27 13.53,19.98 11.21,51.19 -8.33,66.86 -22.87,18.41 -62.97,15.4 -87.28,-10.16 -32.08,-33.58 -41.66,-99.43 -27.2,-172.3 5.96,-30.51 27.08,-107.33 90.48,-176.31 -53.5,39.97 -107.02,101.63 -126.38,194.48 -14.66,69.99 -5.94,134.27 22.37,185.78 32.52,59.2 57.84,52.25 93.98,76.81 28.2,19.3 36.72,47.68 63.1,72.25 10.71,9.95 2.07,13.21 -11.72,16.15 -113.71,23.69 -262.33,-138.02 -199.12,-357.5 4.32,-15.11 7.78,-30.33 12.79,-44.87 -24.63,29.08 -57.27,59.78 -94.43,77.26 -42.79,20.11 -95.61,9.34 -140.59,18.1 -15.04,2.95 -22.43,-0.68 -6.02,-18.97 23.93,-27.14 41.29,-84.97 92.29,-116.74 86.28,-53.76 142.29,24.19 176.82,-25.31 51.75,-74.56 131.83,-128.56 198.04,-158.89 -21.05,0.31 -42.53,-0.32 -55.13,-2.45 -54.2,-10.71 -104.19,-8.14 -113.72,31.33 36.09,19.42 19.18,51.44 -1.63,54.26 -28.88,3.82 -38.03,-24.43 -30.82,-50.87 2.94,-10.72 8.45,-19.49 15.28,-27.13 -10.89,6.26 -22.92,14.41 -36.65,25.19 -79.69,62.09 -154.38,70.23 -230.5,-2.39 -9.84,-9.14 -2.64,-15.97 10.34,-12.65 49.8,13.09 89.08,-48.37 124.61,-66.6 40.23,-20.75 68.93,-23.57 117.61,-15.55 42.61,7.02 67.72,21.25 109.77,31.46 35.52,8.77 88.97,9.27 114.1,5.7 -77.32,-8.27 -201.44,-50.88 -237.16,-81.89 -58.95,-51.06 -120.41,-17.42 -183.89,-49.81zm4061.81 532.38c-29.26,-10.59 -116.91,31.7 -178.82,-90.66 68.8,97.67 151.94,41.73 203.13,73.87 34.96,21.99 43.54,65.53 25.94,97.99 -27.25,49.94 -77.5,7.52 -43.29,-21.55 27.5,-23.37 15.53,-51.45 -6.96,-59.65zm-503.56 -977.48c-28.39,-134.15 66.54,-156.2 82.65,-182.71 12.4,-20.29 4.13,-49.81 -31.83,-50.81 -44.87,-1.26 -32.34,-65.85 20.23,-43.86 34.08,14.16 54.7,53.57 41.04,92.55 -19.8,57.19 -119.61,65.66 -112.09,184.83zm-278.56 899.35c52.31,-17.55 98.36,1.88 137.53,-45.17 13.4,-12.41 21.23,-10.28 16.97,14.09 -8.58,49.25 -17.73,90.85 -59.09,127.64 -48.67,43.29 -107.07,18.1 -145.85,40.34 -20.68,11.84 -73.75,57.65 -17.93,190.54 -104.69,-180.64 -4.38,-303.07 68.37,-327.44zm-378.88 1070.47c95.55,30.44 107.96,115.9 111.33,137.96 5.59,36.34 10.66,66.36 34.78,79.07 18.61,9.96 36.84,3.01 55.89,-30.32 18.48,-32.33 53.25,-27.7 62.46,-0.94 8.97,25.49 -9.58,52.76 -27.94,66.53 -35.84,26.88 -90.16,20.93 -121.11,-18.1 -45.43,-57.15 -2.88,-174.12 -115.41,-234.2zm1129.55 -1524.72c67.41,-34.14 71.04,-103.38 121.67,-153.07 10.91,-10.71 14.66,-21.18 -10.27,-21.24 -71.49,-0.06 -128.75,5.52 -182.89,56.27 -29.39,27.56 -46.43,96.93 -72.74,105.32 39.65,-71.87 36.65,-139.85 -10.15,-202 -29.65,-39.22 -88.34,-63.28 -143.11,-58.64 -47.94,4.01 -86.46,29.44 -108.21,71.67 -31.58,60.84 3.51,133.84 68.23,152 27.2,7.52 58.78,9.46 83.27,-6.76 26.07,-17.36 42.87,-49.88 29.33,-74.38 -12.16,-21.98 -43.99,-17.04 -60.59,-3.38 -13.78,11.28 -14.73,31.39 -29.38,41.35 -22.75,15.36 -48.56,-2.76 -59.9,-22.36 -13.29,-22.63 -14.72,-48.12 -2.51,-71.68 21.24,-41.11 56.51,-52.32 82.46,-54.38 43.6,-3.77 91.91,15.59 114.77,45.85 42.49,56.27 41.99,116.3 -1.56,183.46 -51.62,79.7 -151.37,97.37 -209.39,108.21 -63.79,11.96 -119.93,13.59 -159.08,15.41 -31.77,1.44 -64.04,3.64 -97.69,7.77 59.03,-43.54 100.76,-99 119.8,-125.38 42.55,-58.7 95.81,-182.01 87.66,-302.37 -4.14,-60.14 88.34,-34.64 121.99,-130.51 19.86,-56.58 -2.82,-112.53 -1,-148.68 1.19,-24.56 -6.83,-22.75 -16.67,-10.96 -29.63,34.9 -77.44,59.71 -98.31,102.13 -16.22,33.02 -22.61,71.86 -24.56,107.14 -47.37,-168.68 -219.22,-265.22 -242.66,-277.63 -72.42,-38.28 -161.34,-64.85 -271.8,-81.2 -97.11,-14.41 -183.46,-31.52 -207.26,-111.66 -19.05,-64.09 15.1,-106.01 47.11,-126.24 30.84,-19.49 88.79,-29.76 129.83,11.02 32.27,32.15 28.13,64.6 21.55,82.71 -10.52,28.82 -43.73,53.95 -76.19,23.56 -14.22,-13.34 -9.71,-53.07 -35.09,-58.71 -19.73,-4.32 -41.29,10.58 -35.9,36.53 4.38,21.05 20.68,77 91.48,76.63 37.4,-0.19 72.56,-30.7 85.83,-67.05 8.02,-21.99 13.79,-74.93 -29.63,-116.35 -46.18,-44.04 -120.61,-41.23 -164.66,-13.34 -55.26,34.96 -82.07,91.16 -64.6,157.45 25.45,96.24 131.65,122.18 232.83,137.15 106.77,15.85 192.35,41.29 261.53,77.88 11.27,5.95 59.4,32.9 109.45,78.7 -48.62,-27.32 -104.07,-39.98 -163.21,-37.03 -35.97,1.82 -101.07,16.41 -145.62,-1.19 -51.12,-19.92 -59.7,-86.41 -91.91,-66.1 -43.29,27.32 59.65,106.01 120.61,105.19 -10.14,6.27 -20.11,12.98 -30.2,21.05 -76.93,5.02 -78.94,-53.57 -156.76,-51.81 -71.93,1.63 -99.25,56.08 -140.34,45.11 -20.31,-5.38 -37.98,-8.58 -22.76,14.41 25.19,38.29 94.3,68.99 141.61,70.05 55.7,1.26 100.75,-26.06 148.62,-50.69 -37.66,38.98 -67.79,92.48 -75.44,161.47 -23.56,133.71 73.18,228.44 134.08,272.23 38.22,27.51 31.27,7.46 27.82,-11.14 -4.95,-25.64 11.03,-83.35 -19.04,-156.9 -22.31,-54.32 -97.94,-111.15 -91.42,-173.99 2.63,-6.08 5.51,-11.91 8.59,-17.42 11.77,60.03 48.36,123.05 99.24,124 28.44,0.62 49.62,-36.85 4.01,-68.61 -15.29,-10.78 -57.83,-13.16 -89.79,-77.32 42.55,-61.15 106.58,-93.85 148.31,-102.07 124.75,-24.24 232.01,32.09 294.35,154.89 42.92,84.64 39.79,166.28 23.12,230.82 6.46,-93.42 -25.38,-166.6 -39.72,-194.17 -34.34,-65.85 -83.02,-111.02 -129.13,-117.29 -34.84,-4.7 -74.68,3.38 -81.01,40.35 -5.9,34.21 25.75,56.14 57.58,65.29 49.8,14.29 90.16,-30.2 124.11,26.56 13.04,21.81 21.43,46.31 27.38,70.99 26.38,109.21 17.42,213.28 -73.93,309.96 -77.69,82.2 -202,114.47 -288.65,205.26 -79.19,83.07 -119.05,202.43 -107.08,324.93 11.91,122.43 79.76,223.05 172.3,348.73 14.23,19.43 15.23,25.69 -2.63,14.73 -99.24,-60.71 -256.7,-79.33 -395.35,-30.89 -56.83,19.8 -118.36,50.31 -168.23,101 -71.68,72.87 -103.32,167.04 -100.31,236.52 3,69.61 23.99,135.15 74.06,193.11 23.61,27.38 75.05,69.67 88.59,115.66 15.73,52.63 -50.94,77.37 -85.21,14.54 -19.17,-35.16 -34.09,17.85 -33.84,29.01 1.07,67.6 83.4,97.42 123.37,69.67 50.82,-35.35 47.05,-112.35 8.96,-159.83 11.09,4.07 22.56,7.83 35.03,10.9 51.31,57.58 7.14,122.36 60.9,169.6 55.51,48.75 103.88,48.69 134.83,67.61 20.93,12.9 23.18,4.95 17.67,-9.34 -16.48,-42.79 -14.22,-97.24 -42.42,-135.15 -33.14,-44.85 -82.51,-63.47 -131.26,-86.02 53.82,5.64 114.59,-3.45 173.62,-39.85 119.99,-63.79 135.08,-198.24 132.13,-273.36 -1.81,-46.93 -13.4,-29.14 -25.93,-14.92 -17.17,19.74 -72.37,42.49 -111.97,111.41 -29.07,51.06 -27.31,145.73 -80.88,179.25 -6.4,1.63 -12.79,2.88 -19.05,3.94 40.1,-46.24 67.22,-113.96 36.72,-154.56 -16.99,-22.94 -59.53,-16.6 -56.65,38.97 1.07,18.73 25.32,53.69 -5.63,118.41 -74.38,4.14 -139.54,-26.3 -171.68,-54.19 -95.99,-83.45 -117.35,-202.69 -58.96,-327.38 16.6,-35.46 36.96,-64.97 61.09,-87.71 32.84,-30.89 68.8,-52.69 103.75,-70.3 -75.49,52.13 -113.08,120.68 -125.74,148.62 -30.83,67.48 -36.53,133.7 -13.16,173.87 17.8,30.45 56.14,42.66 82.71,29.95 22.55,-10.71 32.02,-40.54 23.3,-63.1 -8.52,-22.68 -50.5,-49.18 -83.96,-12.47 -6.13,-30.26 0.89,-72.23 20.36,-114.96 10.53,-23.19 23.32,-45.43 39.17,-65.29 120.55,-152.01 334.89,-166.92 491.41,-70.11 55.88,34.58 97.42,84.01 121.86,137.46 27.19,59.64 33.33,117.85 27.5,161.84 -8.14,61.84 -66.35,129.07 -145.54,69.92 57.14,80.2 162.39,34.09 177.37,-65.72 12.9,-86.15 -26.38,-181.89 -66.92,-247.49 -34.14,-55.2 -87.08,-141.41 -133.45,-237.9 -83.4,-173.75 -40.91,-283.64 -6.83,-339.03 40.73,-66.29 109.52,-107.26 193.73,-115.41 28.95,-2.82 61.08,-1.95 88.91,7.21 31.83,10.46 53.63,35.84 64.28,66.97 10.71,31.27 0.5,63.35 9.09,94.24 4.57,16.41 17.29,31.57 34.08,36.77 26,8.02 47.56,-12.97 53.26,-37.46 13.72,-58.46 -27.51,-117.67 -71.87,-151.5 -52.31,-39.79 -115.91,-54.45 -180.82,-48.19 -94.48,9.15 -171.93,55.52 -218.04,130.51 -34.71,56.52 -48.81,125 -41.73,196.99 3.51,36.72 15.92,90.85 40.1,140.1 -40.04,-54.45 -67.04,-117.86 -77.37,-186.46 -18.55,-120.61 17.35,-240.91 95.41,-321.55 48.75,-50.31 108.09,-77.13 163.91,-91.66 156.26,-40.6 343.41,29.06 418.79,190.1 10.77,23.05 18.23,47.55 23.12,72.55 9.15,46.11 6.39,88.53 -6.71,116.6 -24.06,-43.36 -71.05,-27.38 -84.64,-7.27 -13.54,19.98 -11.21,51.19 8.33,66.86 22.87,18.41 62.97,15.4 87.28,-10.16 32.08,-33.58 41.66,-99.43 27.2,-172.3 -5.96,-30.51 -27.08,-107.33 -90.48,-176.31 53.5,39.97 107.01,101.63 126.37,194.48 14.67,69.99 5.95,134.27 -22.36,185.78 -32.52,59.2 -57.84,52.25 -93.98,76.81 -28.2,19.3 -36.72,47.68 -63.1,72.25 -10.71,9.95 -2.07,13.21 11.71,16.15 113.72,23.69 262.34,-138.02 199.13,-357.5 -4.33,-15.11 -7.78,-30.33 -12.79,-44.87 24.63,29.08 57.27,59.78 94.43,77.26 42.79,20.11 95.61,9.34 140.59,18.1 15.04,2.95 22.43,-0.68 6.02,-18.97 -23.94,-27.14 -41.29,-84.97 -92.3,-116.74 -86.27,-53.76 -142.28,24.19 -176.81,-25.31 -51.75,-74.56 -131.83,-128.56 -198.05,-158.89 21.05,0.31 42.54,-0.32 55.13,-2.45 54.21,-10.71 104.2,-8.14 113.72,31.33 -36.08,19.42 -19.17,51.44 1.63,54.26 28.89,3.82 38.04,-24.43 30.83,-50.87 -2.94,-10.72 -8.46,-19.49 -15.29,-27.13 10.9,6.26 22.93,14.41 36.66,25.19 79.69,62.09 154.37,70.23 230.5,-2.39 9.84,-9.14 2.64,-15.97 -10.34,-12.65 -49.81,13.09 -89.09,-48.37 -124.61,-66.6 -40.23,-20.75 -68.93,-23.57 -117.61,-15.55 -42.61,7.02 -67.73,21.25 -109.77,31.46 -35.53,8.77 -88.97,9.27 -114.1,5.7 77.32,-8.27 201.44,-50.88 237.16,-81.89 58.95,-51.06 120.41,-17.42 183.89,-49.81zm-2015.18 1188.82c-558.51,0 -1012.88,-454.37 -1012.88,-1012.94 0,-558.52 454.37,-1012.89 1012.88,-1012.89 558.51,0 1012.88,454.37 1012.88,1012.89 0,558.57 -454.37,1012.94 -1012.88,1012.94zm0 -1993.75l0 0c-540.84,0 -980.8,440.02 -980.8,980.81 0,540.83 439.96,980.86 980.8,980.86 540.84,0 980.8,-440.03 980.8,-980.86 0,-540.79 -439.96,-980.81 -980.8,-980.81zm-25.74 82.24c0,-14.22 11.52,-25.74 25.74,-25.74 14.21,0 25.74,11.52 25.74,25.74 0,14.21 -11.53,25.75 -25.74,25.75 -14.22,0 -25.74,-11.54 -25.74,-25.75zm345.83 1738.64c-5.43,-13.13 0.81,-28.19 13.93,-33.62 13.13,-5.44 28.21,0.79 33.64,13.92 5.44,13.14 -0.81,28.19 -13.94,33.64 -13.13,5.42 -28.19,-0.81 -33.63,-13.94zm-687.75 -1660.39c-5.44,-13.13 0.79,-28.19 13.93,-33.63 13.12,-5.43 28.19,0.8 33.63,13.94 5.44,13.13 -0.8,28.18 -13.93,33.62 -13.13,5.44 -28.2,-0.8 -33.63,-13.93zm-472.39 1140.45c13.14,-5.45 28.2,0.79 33.64,13.92 5.43,13.14 -0.8,28.21 -13.93,33.64 -13.13,5.44 -28.19,-0.8 -33.64,-13.94 -5.43,-13.12 0.81,-28.18 13.93,-33.62zm1660.4 -687.76c13.13,-5.45 28.18,0.81 33.63,13.92 5.44,13.14 -0.8,28.21 -13.93,33.65 -13.14,5.44 -28.19,-0.8 -33.63,-13.93 -5.44,-13.14 0.79,-28.2 13.93,-33.64zm-293.75 1096.23c-8.65,-11.28 -6.52,-27.43 4.75,-36.08 11.29,-8.66 27.45,-6.55 36.1,4.75 8.64,11.28 6.52,27.43 -4.75,36.08 -11.28,8.65 -27.45,6.54 -36.1,-4.75zm-1094.05 -1425.81c-8.66,-11.26 -6.53,-27.43 4.74,-36.08 11.28,-8.66 27.44,-6.52 36.09,4.74 8.66,11.29 6.53,27.44 -4.74,36.09 -11.29,8.67 -27.45,6.53 -36.09,-4.75zm-161.12 1223.85c11.27,-8.66 27.44,-6.53 36.1,4.76 8.65,11.27 6.52,27.43 -4.76,36.09 -11.28,8.64 -27.44,6.52 -36.09,-4.75 -8.65,-11.28 -6.53,-27.44 4.75,-36.1zm1425.81 -1094.06c11.28,-8.65 27.43,-6.52 36.09,4.74 8.65,11.29 6.52,27.45 -4.75,36.11 -11.28,8.64 -27.43,6.52 -36.1,-4.76 -8.66,-11.28 -6.52,-27.44 4.76,-36.09zm0 1134.91c-11.28,-8.65 -13.42,-24.82 -4.76,-36.1 8.65,-11.28 24.82,-13.4 36.08,-4.75 11.29,8.66 13.42,24.82 4.75,36.1 -8.65,11.28 -24.8,13.39 -36.07,4.75zm-1425.82 -1094.07c-11.28,-8.65 -13.4,-24.81 -4.75,-36.09 8.65,-11.27 24.82,-13.4 36.09,-4.75 11.27,8.65 13.41,24.81 4.76,36.09 -8.65,11.28 -24.82,13.41 -36.1,4.75zm161.13 1223.85c8.64,-11.28 24.81,-13.41 36.1,-4.77 11.27,8.67 13.4,24.83 4.74,36.1 -8.65,11.28 -24.81,13.42 -36.09,4.75 -11.27,-8.65 -13.4,-24.8 -4.75,-36.08zm1094.07 -1425.81c8.64,-11.27 24.8,-13.41 36.08,-4.75 11.27,8.65 13.4,24.8 4.75,36.08 -8.64,11.28 -24.81,13.42 -36.09,4.75 -11.28,-8.64 -13.41,-24.8 -4.74,-36.08zm293.72 1096.23c-13.14,-5.45 -19.37,-20.5 -13.93,-33.63 5.44,-13.14 20.5,-19.38 33.64,-13.94 13.13,5.45 19.37,20.51 13.93,33.64 -5.44,13.13 -20.52,19.37 -33.64,13.93zm-1660.4 -687.75c-13.12,-5.44 -19.36,-20.5 -13.93,-33.63 5.44,-13.14 20.52,-19.37 33.65,-13.94 13.13,5.44 19.38,20.5 13.93,33.64 -5.44,13.13 -20.51,19.35 -33.65,13.93zm472.41 1140.43c5.44,-13.14 20.49,-19.36 33.63,-13.94 13.13,5.44 19.37,20.51 13.93,33.65 -5.44,13.12 -20.51,19.37 -33.62,13.93 -13.14,-5.44 -19.38,-20.51 -13.94,-33.64zm687.76 -1660.39c5.42,-13.13 20.48,-19.37 33.62,-13.93 13.14,5.43 19.37,20.51 13.93,33.63 -5.43,13.14 -20.49,19.38 -33.62,13.93 -13.14,-5.43 -19.37,-20.49 -13.93,-33.63zm567.43 982.86c-14.08,-1.85 -24.01,-14.78 -22.17,-28.88 1.87,-14.09 14.81,-24.02 28.89,-22.16 14.11,1.86 24.02,14.79 22.16,28.87 -1.84,14.1 -14.78,24.03 -28.88,22.17zm-1781.8 -234.58c-14.11,-1.85 -24.03,-14.78 -22.17,-28.88 1.85,-14.08 14.78,-24.01 28.88,-22.15 14.09,1.85 24.02,14.78 22.17,28.87 -1.87,14.1 -14.8,24.01 -28.88,22.16zm751.45 979.31c1.85,-14.08 14.78,-24.02 28.88,-22.17 14.09,1.87 24.02,14.8 22.16,28.89 -1.86,14.11 -14.79,24.02 -28.87,22.17 -14.1,-1.86 -24.03,-14.79 -22.17,-28.89zm234.59 -1781.81c1.85,-14.1 14.79,-24.01 28.88,-22.16 14.09,1.85 24.01,14.79 22.14,28.88 -1.83,14.09 -14.77,24.02 -28.87,22.17 -14.09,-1.86 -24.01,-14.8 -22.15,-28.89zm802.49 802.5c-14.09,1.87 -27.03,-8.06 -28.88,-22.16 -1.85,-14.08 8.06,-27.02 22.15,-28.88 14.09,-1.85 27.04,8.08 28.88,22.17 1.86,14.1 -8.06,27.02 -22.15,28.87zm-1781.82 234.58c-14.1,1.86 -27.03,-8.07 -28.88,-22.16 -1.86,-14.1 8.06,-27.02 22.16,-28.88 14.09,-1.85 27.02,8.07 28.88,22.16 1.85,14.09 -8.07,27.03 -22.16,28.88zm979.33 751.45c-1.86,-14.09 8.06,-27.02 22.15,-28.88 14.09,-1.85 27.04,8.07 28.88,22.16 1.86,14.09 -8.06,27.03 -22.16,28.89 -14.1,1.85 -27.02,-8.08 -28.87,-22.17zm-234.59 -1781.81c-1.86,-14.09 8.06,-27.03 22.16,-28.88 14.09,-1.85 27.02,8.06 28.88,22.15 1.85,14.1 -8.08,27.04 -22.16,28.88 -14.1,1.86 -27.03,-8.06 -28.88,-22.15zm350.51 1762.17c-3.68,-13.72 4.48,-27.84 18.2,-31.52 13.75,-3.66 27.86,4.47 31.52,18.21 3.7,13.73 -4.46,27.85 -18.18,31.52 -13.73,3.68 -27.85,-4.48 -31.54,-18.21zm-465.14 -1735.93c-3.69,-13.75 4.46,-27.87 18.19,-31.54 13.73,-3.66 27.86,4.46 31.54,18.21 3.67,13.73 -4.48,27.86 -18.2,31.53 -13.74,3.67 -27.85,-4.48 -31.53,-18.2zm-617.19 1069.02c13.72,-3.68 27.85,4.48 31.52,18.2 3.67,13.73 -4.46,27.85 -18.21,31.52 -13.72,3.69 -27.84,-4.46 -31.51,-18.19 -3.68,-13.73 4.48,-27.85 18.2,-31.53zm1735.94 -465.14c13.75,-3.7 27.85,4.45 31.52,18.19 3.7,13.73 -4.45,27.86 -18.18,31.53 -13.74,3.68 -27.86,-4.47 -31.54,-18.19 -3.67,-13.75 4.48,-27.86 18.2,-31.53zm-434.31 1048.49c-7.11,-12.3 -2.89,-28.04 9.41,-35.16 12.33,-7.09 28.07,-2.88 35.16,9.44 7.11,12.31 2.9,28.05 -9.4,35.14 -12.31,7.12 -28.05,2.91 -35.17,-9.42zm-898.59 -1556.39c-7.12,-12.33 -2.9,-28.07 9.41,-35.18 12.31,-7.1 28.06,-2.89 35.17,9.44 7.1,12.31 2.89,28.06 -9.41,35.16 -12.32,7.11 -28.07,2.88 -35.17,-9.42zm-319.47 1192.34c12.3,-7.11 28.04,-2.89 35.15,9.41 7.11,12.31 2.9,28.06 -9.43,35.17 -12.31,7.11 -28.05,2.89 -35.15,-9.42 -7.11,-12.31 -2.88,-28.06 9.43,-35.16zm1556.4 -898.59c12.31,-7.13 28.05,-2.9 35.16,9.41 7.11,12.3 2.9,28.06 -9.42,35.17 -12.3,7.11 -28.06,2.89 -35.17,-9.42 -7.1,-12.32 -2.88,-28.07 9.43,-35.16zm-148.14 1125.18c-10.06,-10.05 -10.06,-26.35 -0.01,-36.4 10.05,-10.05 26.36,-10.05 36.4,0.01 10.05,10.05 10.05,26.35 0.02,36.39 -10.05,10.06 -26.37,10.05 -36.41,0zm-1270.81 -1270.79c-10.06,-10.06 -10.06,-26.36 0,-36.41 10.04,-10.05 26.35,-10.06 36.41,0 10.04,10.05 10.04,26.36 0,36.41 -10.05,10.05 -26.36,10.04 -36.41,0zm0.01 1234.4c10.06,-10.06 26.36,-10.06 36.4,-0.01 10.05,10.05 10.05,26.35 0,36.4 -10.05,10.06 -26.36,10.06 -36.41,0.01 -10.04,-10.05 -10.03,-26.36 0.01,-36.4zm1270.8 -1270.8c10.06,-10.07 26.36,-10.07 36.41,-0.01 10.04,10.04 10.05,26.35 0,36.4 -10.05,10.06 -26.37,10.06 -36.41,0.01 -10.05,-10.06 -10.04,-26.36 0,-36.4zm148.14 1125.18c-12.32,-7.11 -16.55,-22.86 -9.43,-35.17 7.11,-12.3 22.85,-16.52 35.16,-9.41 12.31,7.1 16.53,22.85 9.43,35.15 -7.11,12.32 -22.86,16.53 -35.16,9.43zm-1556.41 -898.59c-12.33,-7.11 -16.55,-22.86 -9.43,-35.17 7.1,-12.3 22.84,-16.54 35.16,-9.42 12.32,7.1 16.54,22.86 9.43,35.16 -7.12,12.32 -22.86,16.53 -35.16,9.43zm319.49 1192.34c7.11,-12.32 22.85,-16.54 35.16,-9.44 12.3,7.12 16.53,22.86 9.41,35.16 -7.1,12.33 -22.85,16.54 -35.15,9.43 -12.31,-7.1 -16.52,-22.85 -9.42,-35.15zm898.59 -1556.41c7.11,-12.33 22.85,-16.55 35.16,-9.44 12.3,7.11 16.54,22.85 9.42,35.17 -7.1,12.31 -22.85,16.54 -35.16,9.43 -12.31,-7.11 -16.52,-22.85 -9.42,-35.16zm434.3 1048.51c-13.73,-3.68 -21.88,-17.8 -18.21,-31.53 3.69,-13.72 17.8,-21.88 31.53,-18.2 13.73,3.68 21.89,17.8 18.2,31.52 -3.67,13.74 -17.79,21.88 -31.52,18.21zm-1735.95 -465.15c-13.74,-3.67 -21.89,-17.79 -18.2,-31.53 3.67,-13.73 17.79,-21.87 31.52,-18.19 13.73,3.67 21.88,17.79 18.21,31.52 -3.68,13.73 -17.81,21.88 -31.53,18.2zm617.21 1069.02c3.67,-13.74 17.79,-21.88 31.52,-18.2 13.73,3.68 21.88,17.79 18.2,31.52 -3.67,13.72 -17.8,21.88 -31.52,18.21 -13.73,-3.68 -21.88,-17.81 -18.2,-31.53zm465.14 -1735.95c3.68,-13.74 17.8,-21.89 31.53,-18.2 13.73,3.67 21.89,17.79 18.19,31.53 -3.67,13.72 -17.78,21.87 -31.51,18.2 -13.73,-3.69 -21.88,-17.8 -18.21,-31.53zm690.88 900.39c-14.21,0 -25.74,-11.53 -25.74,-25.75 0,-14.21 11.53,-25.74 25.74,-25.74 14.21,0 25.74,11.53 25.74,25.74 0,14.22 -11.53,25.75 -25.74,25.75zm-1797.19 0c-14.22,0 -25.74,-11.53 -25.74,-25.75 0,-14.21 11.52,-25.74 25.74,-25.74 14.21,0 25.74,11.53 25.74,25.74 0,14.22 -11.53,25.75 -25.74,25.75zm872.86 872.84c0,-14.22 11.52,-25.74 25.74,-25.74 14.21,0 25.74,11.52 25.74,25.74 0,14.22 -11.53,25.75 -25.74,25.75 -14.22,0 -25.74,-11.53 -25.74,-25.75z"/>
 </g>
</svg>
